<?xml version="1.0" encoding="utf-8"?>
<!-- Generator: Adobe Illustrator 16.0.0, SVG Export Plug-In . SVG Version: 6.00 Build 0)  -->
<!DOCTYPE svg PUBLIC "-//W3C//DTD SVG 1.1//EN" "http://www.w3.org/Graphics/SVG/1.1/DTD/svg11.dtd">
<svg version="1.1" id="Layer_1" xmlns="http://www.w3.org/2000/svg" xmlns:xlink="http://www.w3.org/1999/xlink" x="0px" y="0px"
	 width="65.51px" height="65.888px" viewBox="0 0 65.51 65.888" enable-background="new 0 0 65.51 65.888" xml:space="preserve">
<g>
	<path fill="#FFF1B5" d="M60.608,27.206c6.732,13.873,5.961,28.141-10.068,35.917c-16.03,7.778-24.68-1.918-31.41-15.791
		s-5.569-28.33,8.305-35.061C41.307,5.54,53.879,13.333,60.608,27.206z"/>
	<circle fill="#FFFFFF" cx="28.988" cy="41.298" r="6.344"/>
	<circle fill="#2B7871" cx="28.988" cy="41.299" r="3.12"/>
	<path fill="#FFFFFF" d="M54.902,39.5c2.183,4.499,0.325,10.553-4.463,12.876c-4.787,2.321-10.692,0.034-12.874-4.464L54.902,39.5z"
		/>
	<path fill="#010101" d="M55.695,42.871c0.17,3.699-1.753,7.578-5.345,9.321c-3.422,1.659-7.433,0.929-10.228-1.24
		C39.008,50.086,55.64,41.635,55.695,42.871z"/>
	<path fill="#2B7871" d="M16.518,12.906c-0.538,1.023-3.316,0.729-4.423,1.277c-2.201,1.095-3.086,2.413-4.442,4.602
		C5.648,22.012,3.013,23.209,0,24.943c1.602,1.646,3.161,0.103,4.694,0.464c-0.203,0.866-0.856,1.525-1.263,2.277
		c-0.997,1.85-1.322,3.708-1.19,6.14c0.168,3.107,0.974,6.223,1.705,9.329c0.345-2.061,1.005-5.34,2.453-6.574
		c1.006,1.703,1.06,4.505,1.817,6.423c1.069,2.714,2.337,5.458,2.755,8.28c0.499-1.914,0.132-4.588-0.14-6.714
		c-0.14-1.096-0.794-3.776-0.174-4.524c1.796,2.125,3.176,5.733,4.35,8.337c-0.408-2.422-0.123-5.76,0.179-7.905
		c2.163,4.652,2.652-0.772,2.891-2.316c0.514-3.306,1.047-6.827,2.284-9.698c0.811-1.878,4.186-7.643,3.027-0.345
		c2.15-1.153-0.317-8.013,12.96-12.411c0.002-0.568,6.548,1.49,7.054,1.331c1.062-0.338,2.796,2.317,3.824,2.382
		c1.885,0.121,1.062-3.224,1.646-4.528c1.862,1.084,4.896,3.472,6.242,5.376c1.084,1.531,1.049,3.172,1.878,4.61
		c1.178-0.566,1.977,0.374,2.459-0.773c0.335-0.795,0.022-1.718,0.046-2.616c0.021-0.791,0.308-1.46,0.254-2.264
		c1.079,2.278,2.34,4.539,3.293,6.861c-0.343-2.346,0.753-6.09-1.192-8.265c1.324,0.154,2.68,1.536,3.657,2.744
		c-1.74-3.938-5.478-4.936-8.086-7.361c-0.717-0.668-0.766-0.364-1.443-1.742c-0.703-1.43-1.364-2.716-2.28-4.019
		c-2.284-3.248-1.841-3.644-4.965-4.842c2.343-0.984,1.324,0.469,3.525,0.404c-1.613-2.66-5.54-3.062-7.698-2.997
		c-1.734,0.057-3.307,1.245-4.797,1.968C38.03,2.816,36.291,3.645,34.561,4.5c-1.002,0.493-3.23,1.763-1.688-0.024
		c0.889-1.028,1.398-1.44,2.878-2.265c-1.481,0.283-3.009-0.582-4.45-0.146c-1.655,0.5-2.808,2.222-3.976,3.507
		c-1.058,1.17-0.454,2.163-1.667,3.073c-1.51,1.133-3.128,0.93-4.917,1.148c-1.397,0.172-4.007,1.531-5.277,2.052
		c-1.147,0.468-3.317,0.335-4.05,1.102c1.025,0.431,3.46-0.098,4.507,0.076"/>
	<path fill="#603A17" d="M30.589,30.134c-2.055,1.139-4.394,1.91-6.521,2.96c-1.693,0.837-3.007,2.272-4.637,3.038
		c-1.498-4.039,7.943-7.552,10.912-6.083"/>
	<path fill="#603A17" d="M50.172,20.632c-2.055,1.14-4.395,1.911-6.521,2.961c-1.693,0.836-3.006,2.272-4.637,3.037
		c-1.497-4.038,7.943-7.551,10.911-6.082"/>
	<circle fill="#FFFFFF" cx="27.204" cy="40.24" r="1.51"/>
	<circle fill="#FFFFFF" cx="48.076" cy="32.038" r="6.345"/>
	<circle fill="#2B7871" cx="48.075" cy="32.038" r="3.118"/>
	<circle fill="#FFFFFF" cx="46.292" cy="30.977" r="1.51"/>
	<path fill="#E6D9A3" d="M47.442,55.027c3.165,0.281,7.134-3.189,8.628-5.933C55.464,52.417,52.367,57.684,47.442,55.027z"/>
	<path fill="#97292E" d="M50.351,52.192c1.773-0.86,3.138-2.244,4.048-3.868c-1.056-1.266-2.872-1.705-4.421-0.952
		c-0.597,0.289-1.076,0.72-1.426,1.229c-0.398,0.045-0.798,0.154-1.182,0.34c-1.563,0.761-2.343,2.482-1.979,4.106
		C47.052,53.212,48.764,52.96,50.351,52.192z"/>
</g>
</svg>
