<?xml version="1.0" encoding="utf-8"?>
<!-- Generator: Adobe Illustrator 16.0.0, SVG Export Plug-In . SVG Version: 6.00 Build 0)  -->
<!DOCTYPE svg PUBLIC "-//W3C//DTD SVG 1.1//EN" "http://www.w3.org/Graphics/SVG/1.1/DTD/svg11.dtd">
<svg version="1.1" id="Layer_1" xmlns="http://www.w3.org/2000/svg" xmlns:xlink="http://www.w3.org/1999/xlink" x="0px" y="0px"
	 width="38.2px" height="132px" viewBox="0 0 38.2 132" enable-background="new 0 0 38.2 132" xml:space="preserve">
<g>
	<defs>
		<rect id="SVGID_1_" width="38.2" height="132"/>
	</defs>
	<clipPath id="SVGID_2_">
		<use xlink:href="#SVGID_1_"  overflow="visible"/>
	</clipPath>
	<g clip-path="url(#SVGID_2_)">
		<polygon opacity="0.8" fill="#004242" points="655.4,132 0,132 22.176,66 0,0 655.4,0 633.225,66 		"/>
		<g>
			<g>
				<polyline fill="none" stroke="#FEFBDF" stroke-width="2" stroke-miterlimit="10" points="11.4,125.4 9.663,125.4 
					10.216,123.754 				"/>
				<polyline fill="none" stroke="#FEFBDF" stroke-width="2" stroke-miterlimit="10" stroke-dasharray="3.4606,3.4606" points="
					11.318,120.475 29.505,66.348 10.768,10.582 				"/>
				<polyline fill="none" stroke="#FEFBDF" stroke-width="2" stroke-miterlimit="10" points="10.216,8.941 9.663,7.295 11.4,7.295 
									"/>
				
					<line fill="none" stroke="#FEFBDF" stroke-width="2" stroke-miterlimit="10" stroke-dasharray="3,3" x1="14.7" y1="7" x2="642.7" y2="7"/>
				<polyline fill="none" stroke="#FEFBDF" stroke-width="2" stroke-miterlimit="10" points="644.001,7.295 645.737,7.295 
					645.185,8.941 				"/>
				<polyline fill="none" stroke="#FEFBDF" stroke-width="2" stroke-miterlimit="10" stroke-dasharray="3.4606,3.4606" points="
					644.082,12.222 625.896,66.348 644.633,122.114 				"/>
				<polyline fill="none" stroke="#FEFBDF" stroke-width="2" stroke-miterlimit="10" points="645.185,123.754 645.737,125.4 
					644.001,125.4 				"/>
				
					<line fill="none" stroke="#FEFBDF" stroke-width="2" stroke-miterlimit="10" stroke-dasharray="3,3" x1="640.7" y1="125" x2="12.7" y2="125"/>
			</g>
		</g>
	</g>
</g>
</svg>
