<?xml version="1.0" encoding="utf-8"?>
<!-- Generator: Adobe Illustrator 16.0.0, SVG Export Plug-In . SVG Version: 6.00 Build 0)  -->
<!DOCTYPE svg PUBLIC "-//W3C//DTD SVG 1.1//EN" "http://www.w3.org/Graphics/SVG/1.1/DTD/svg11.dtd">
<svg version="1.1" id="Layer_1" xmlns="http://www.w3.org/2000/svg" xmlns:xlink="http://www.w3.org/1999/xlink" x="0px" y="0px"
	 width="38.2px" height="132px" viewBox="0 0 38.2 132" enable-background="new 0 0 38.2 132" xml:space="preserve">
<g>
	<defs>
		<rect id="SVGID_1_" width="38.2" height="132"/>
	</defs>
	<clipPath id="SVGID_2_">
		<use xlink:href="#SVGID_1_"  overflow="visible"/>
	</clipPath>
	<g clip-path="url(#SVGID_2_)">
		<polygon opacity="0.8" fill="#004242" points="-617.2,0 38.2,0 16.024,66 38.2,132 -617.2,132 -595.024,66 		"/>
		<g>
			<g>
				<polyline fill="none" stroke="#FFFFFF" stroke-width="2" stroke-miterlimit="10" points="26.8,6.6 28.537,6.6 27.984,8.246 				
					"/>
				<polyline fill="none" stroke="#FFFFFF" stroke-width="2" stroke-miterlimit="10" stroke-dasharray="3.4606,3.4606" points="
					26.882,11.525 8.695,65.652 27.432,121.418 				"/>
				<polyline fill="none" stroke="#FFFFFF" stroke-width="2" stroke-miterlimit="10" points="27.984,123.059 28.537,124.705 
					26.8,124.705 				"/>
				
					<line fill="none" stroke="#FFFFFF" stroke-width="2" stroke-miterlimit="10" stroke-dasharray="3,3" x1="23.5" y1="125" x2="-604.5" y2="125"/>
				<polyline fill="none" stroke="#FFFFFF" stroke-width="2" stroke-miterlimit="10" points="-605.801,124.705 -607.537,124.705 
					-606.984,123.059 				"/>
				<polyline fill="none" stroke="#FFFFFF" stroke-width="2" stroke-miterlimit="10" stroke-dasharray="3.4606,3.4606" points="
					-605.882,119.777 -587.696,65.652 -606.433,9.886 				"/>
				<polyline fill="none" stroke="#FFFFFF" stroke-width="2" stroke-miterlimit="10" points="-606.984,8.246 -607.537,6.6 
					-605.801,6.6 				"/>
				
					<line fill="none" stroke="#FFFFFF" stroke-width="2" stroke-miterlimit="10" stroke-dasharray="3,3" x1="-602.5" y1="7" x2="25.5" y2="7"/>
			</g>
		</g>
	</g>
</g>
<polygon opacity="0.8" fill="#004242" points="413.954,88.5 75,88.5 86.469,70.5 75,52.5 413.954,52.5 402.485,70.5 "/>
<g>
	<g>
		<polyline fill="none" stroke="#E4D2D3" stroke-width="0.9251" stroke-miterlimit="10" points="80.801,85.398 79.998,85.398 
			80.444,84.73 		"/>
		
			<line fill="none" stroke="#E4D2D3" stroke-width="0.9251" stroke-miterlimit="10" stroke-dasharray="1.5308,1.5308" x1="81.296" y1="83.459" x2="89.387" y2="71.374"/>
		<polyline fill="none" stroke="#E4D2D3" stroke-width="0.9251" stroke-miterlimit="10" points="89.812,70.738 90.259,70.07 
			89.812,69.402 		"/>
		
			<line fill="none" stroke="#E4D2D3" stroke-width="0.9251" stroke-miterlimit="10" stroke-dasharray="1.5308,1.5308" x1="88.961" y1="68.131" x2="80.87" y2="56.046"/>
		<polyline fill="none" stroke="#E4D2D3" stroke-width="0.9251" stroke-miterlimit="10" points="80.444,55.41 79.998,54.742 
			80.801,54.742 		"/>
		<line fill="none" stroke="#E4D2D3" stroke-miterlimit="10" stroke-dasharray="2,2" x1="82.2" y1="55" x2="407.2" y2="55"/>
		<polyline fill="none" stroke="#E4D2D3" stroke-width="0.9251" stroke-miterlimit="10" points="408.152,54.742 408.956,54.742 
			408.509,55.41 		"/>
		
			<line fill="none" stroke="#E4D2D3" stroke-width="0.9251" stroke-miterlimit="10" stroke-dasharray="1.5308,1.5308" x1="407.657" y1="56.682" x2="399.567" y2="68.767"/>
		<polyline fill="none" stroke="#E4D2D3" stroke-width="0.9251" stroke-miterlimit="10" points="399.142,69.402 398.694,70.07 
			399.142,70.738 		"/>
		
			<line fill="none" stroke="#E4D2D3" stroke-width="0.9251" stroke-miterlimit="10" stroke-dasharray="1.5308,1.5308" x1="399.993" y1="72.01" x2="408.083" y2="84.095"/>
		<polyline fill="none" stroke="#E4D2D3" stroke-width="0.9251" stroke-miterlimit="10" points="408.509,84.73 408.956,85.398 
			408.152,85.398 		"/>
		<line fill="none" stroke="#E4D2D3" stroke-miterlimit="10" stroke-dasharray="2,2" x1="406.2" y1="85" x2="81.2" y2="85"/>
	</g>
</g>
</svg>
