<?xml version="1.0" encoding="utf-8"?>
<!-- Generator: Adobe Illustrator 16.0.0, SVG Export Plug-In . SVG Version: 6.00 Build 0)  -->
<!DOCTYPE svg PUBLIC "-//W3C//DTD SVG 1.1//EN" "http://www.w3.org/Graphics/SVG/1.1/DTD/svg11.dtd">
<svg version="1.1" id="Layer_1" xmlns="http://www.w3.org/2000/svg" xmlns:xlink="http://www.w3.org/1999/xlink" x="0px" y="0px"
	 width="219.688px" height="200.567px" viewBox="0 0 219.688 200.567" enable-background="new 0 0 219.688 200.567"
	 xml:space="preserve">
<g id="Layer_8_1_">
	<linearGradient id="SVGID_1_" gradientUnits="userSpaceOnUse" x1="120.6118" y1="6.4941" x2="91.0443" y2="55.1669">
		<stop  offset="0.1161" style="stop-color:#676767"/>
		<stop  offset="0.2328" style="stop-color:#5B5B5B"/>
		<stop  offset="0.4435" style="stop-color:#3C3C3C"/>
		<stop  offset="0.7223" style="stop-color:#090909"/>
		<stop  offset="0.7535" style="stop-color:#030303"/>
		<stop  offset="0.9894" style="stop-color:#000000"/>
	</linearGradient>
	<path fill="url(#SVGID_1_)" d="M128.047,14.937H82.409c-0.628,0-1.133,0.508-1.133,1.132v31.496c0,0.624,0.505,1.13,1.133,1.13
		h17.158v2.715c0,0.039,0.013,0.077,0.016,0.114H97.12c-0.573,0-1.037,0.465-1.037,1.038s0.464,1.037,1.037,1.037h16.785
		c0.572,0,1.036-0.461,1.036-1.037c0-0.573-0.464-1.038-1.036-1.038h-2.466c0.005-0.037,0.015-0.075,0.015-0.114v-2.715h16.598
		c0.623,0,1.131-0.506,1.131-1.13V16.068C129.18,15.444,128.674,14.937,128.047,14.937z M125.974,42.627
		c0,0.625-0.508,1.132-1.131,1.132H85.613c-0.622,0-1.13-0.507-1.13-1.132v-23.88c0-0.624,0.508-1.131,1.13-1.131h39.229
		c0.623,0,1.131,0.507,1.131,1.131V42.627z"/>
</g>
<path fill="#5EBAAB" d="M126.537,18.906c0-1.145-0.837-2.072-1.864-2.072H85.989c-1.028,0-1.863,0.928-1.863,2.072v22.781
	c0,1.144,0.835,2.071,1.863,2.071h38.684c1.027,0,1.864-0.928,1.864-2.071V18.906z"/>
<rect x="88.17" y="18.942" opacity="0.9" fill="#F4F5F5" width="34.322" height="4.825"/>
<rect x="88.17" y="25.47" opacity="0.9" fill="#F4F5F5" width="12.969" height="1.076"/>
<rect x="88.17" y="29.759" opacity="0.9" fill="#F4F5F5" width="12.969" height="1.077"/>
<rect x="88.17" y="34.047" opacity="0.9" fill="#F4F5F5" width="12.969" height="1.078"/>
<rect x="104.025" y="25.47" opacity="0.9" fill="#F4F5F5" width="2.641" height="16.726"/>
<rect x="108.963" y="25.47" opacity="0.9" fill="#F4F5F5" width="12.966" height="1.076"/>
<defs>
	<filter id="Adobe_OpacityMaskFilter" filterUnits="userSpaceOnUse" x="93.219" y="55.047" width="26.894" height="2.402">
		<feColorMatrix  type="matrix" values="1 0 0 0 0  0 1 0 0 0  0 0 1 0 0  0 0 0 1 0"/>
	</filter>
</defs>
<mask maskUnits="userSpaceOnUse" x="93.219" y="55.047" width="26.894" height="2.402" id="SVGID_2_">
	<g filter="url(#Adobe_OpacityMaskFilter)">
		
			<radialGradient id="SVGID_3_" cx="106.6655" cy="-1191.3018" r="13.448" gradientTransform="matrix(1 0 0 0.0893 0 162.631)" gradientUnits="userSpaceOnUse">
			<stop  offset="0" style="stop-color:#FFFFFF"/>
			<stop  offset="1" style="stop-color:#191812"/>
		</radialGradient>
		<ellipse fill="url(#SVGID_3_)" cx="106.666" cy="56.246" rx="13.447" ry="1.203"/>
	</g>
</mask>
<linearGradient id="SVGID_4_" gradientUnits="userSpaceOnUse" x1="106.6689" y1="57.4463" x2="106.6621" y2="55.0669">
	<stop  offset="0" style="stop-color:#4E4949"/>
	<stop  offset="0.3539" style="stop-color:#191812"/>
	<stop  offset="1" style="stop-color:#191812"/>
</linearGradient>
<ellipse opacity="0.33" mask="url(#SVGID_2_)" fill="url(#SVGID_4_)" cx="106.666" cy="56.246" rx="13.447" ry="1.203"/>
<defs>
	<filter id="Adobe_OpacityMaskFilter_1_" filterUnits="userSpaceOnUse" x="154.552" y="128.668" width="50.849" height="2.362">
		<feColorMatrix  type="matrix" values="1 0 0 0 0  0 1 0 0 0  0 0 1 0 0  0 0 0 1 0"/>
	</filter>
</defs>
<mask maskUnits="userSpaceOnUse" x="154.552" y="128.668" width="50.849" height="2.362" id="SVGID_5_">
	<g filter="url(#Adobe_OpacityMaskFilter_1_)">
		
			<radialGradient id="SVGID_6_" cx="179.9766" cy="2282.7334" r="25.4385" gradientTransform="matrix(1 0 0 0.0464 0 23.9303)" gradientUnits="userSpaceOnUse">
			<stop  offset="0" style="stop-color:#FFFFFF"/>
			<stop  offset="1" style="stop-color:#191812"/>
		</radialGradient>
		<path fill="url(#SVGID_6_)" d="M205.4,129.848c0,0.652-11.381,1.183-25.424,1.183c-14.045,0-25.425-0.53-25.425-1.183
			c0-0.651,11.38-1.18,25.425-1.18C194.02,128.668,205.4,129.196,205.4,129.848z"/>
	</g>
</mask>
<linearGradient id="SVGID_7_" gradientUnits="userSpaceOnUse" x1="179.9785" y1="131.0293" x2="179.9718" y2="128.6867">
	<stop  offset="0" style="stop-color:#4E4949"/>
	<stop  offset="0.3539" style="stop-color:#191812"/>
	<stop  offset="1" style="stop-color:#191812"/>
</linearGradient>
<path opacity="0.33" mask="url(#SVGID_5_)" fill="url(#SVGID_7_)" d="M205.4,129.848c0,0.652-11.381,1.183-25.424,1.183
	c-14.045,0-25.425-0.53-25.425-1.183c0-0.651,11.38-1.18,25.425-1.18C194.02,128.668,205.4,129.196,205.4,129.848z"/>
<defs>
	<filter id="Adobe_OpacityMaskFilter_2_" filterUnits="userSpaceOnUse" x="67.424" y="198.976" width="34.395" height="1.592">
		<feColorMatrix  type="matrix" values="1 0 0 0 0  0 1 0 0 0  0 0 1 0 0  0 0 0 1 0"/>
	</filter>
</defs>
<mask maskUnits="userSpaceOnUse" x="67.424" y="198.976" width="34.395" height="1.592" id="SVGID_8_">
	<g filter="url(#Adobe_OpacityMaskFilter_2_)">
		
			<radialGradient id="SVGID_9_" cx="84.6211" cy="3789.6787" r="17.1729" gradientTransform="matrix(1 0 0 0.0464 0 23.9303)" gradientUnits="userSpaceOnUse">
			<stop  offset="0" style="stop-color:#FFFFFF"/>
			<stop  offset="1" style="stop-color:#191812"/>
		</radialGradient>
		<path fill="url(#SVGID_9_)" d="M101.818,199.769c0,0.443-7.699,0.799-17.198,0.799c-9.497,0-17.196-0.355-17.196-0.799
			c0-0.437,7.699-0.793,17.196-0.793C94.119,198.976,101.818,199.332,101.818,199.769z"/>
	</g>
</mask>
<linearGradient id="SVGID_10_" gradientUnits="userSpaceOnUse" x1="84.6235" y1="200.5684" x2="84.619" y2="198.9886">
	<stop  offset="0" style="stop-color:#4E4949"/>
	<stop  offset="0.3539" style="stop-color:#191812"/>
	<stop  offset="1" style="stop-color:#191812"/>
</linearGradient>
<path opacity="0.33" mask="url(#SVGID_8_)" fill="url(#SVGID_10_)" d="M101.818,199.769c0,0.443-7.699,0.799-17.198,0.799
	c-9.497,0-17.196-0.355-17.196-0.799c0-0.437,7.699-0.793,17.196-0.793C94.119,198.976,101.818,199.332,101.818,199.769z"/>
<defs>
	<filter id="Adobe_OpacityMaskFilter_3_" filterUnits="userSpaceOnUse" x="105.844" y="198.976" width="34.394" height="1.592">
		<feColorMatrix  type="matrix" values="1 0 0 0 0  0 1 0 0 0  0 0 1 0 0  0 0 0 1 0"/>
	</filter>
</defs>
<mask maskUnits="userSpaceOnUse" x="105.844" y="198.976" width="34.394" height="1.592" id="SVGID_11_">
	<g filter="url(#Adobe_OpacityMaskFilter_3_)">
		
			<radialGradient id="SVGID_12_" cx="123.0405" cy="3789.6787" r="17.1726" gradientTransform="matrix(1 0 0 0.0464 0 23.9303)" gradientUnits="userSpaceOnUse">
			<stop  offset="0" style="stop-color:#FFFFFF"/>
			<stop  offset="1" style="stop-color:#191812"/>
		</radialGradient>
		<path fill="url(#SVGID_12_)" d="M140.237,199.769c0,0.443-7.698,0.799-17.196,0.799s-17.197-0.355-17.197-0.799
			c0-0.437,7.699-0.793,17.197-0.793S140.237,199.332,140.237,199.769z"/>
	</g>
</mask>
<linearGradient id="SVGID_13_" gradientUnits="userSpaceOnUse" x1="123.043" y1="200.5674" x2="123.0384" y2="198.9876">
	<stop  offset="0" style="stop-color:#4E4949"/>
	<stop  offset="0.3539" style="stop-color:#191812"/>
	<stop  offset="1" style="stop-color:#191812"/>
</linearGradient>
<path opacity="0.33" mask="url(#SVGID_11_)" fill="url(#SVGID_13_)" d="M140.237,199.769c0,0.443-7.698,0.799-17.196,0.799
	s-17.197-0.355-17.197-0.799c0-0.437,7.699-0.793,17.197-0.793S140.237,199.332,140.237,199.769z"/>
<g id="_x32_26._iPad_8_">
	<g>
		<linearGradient id="SVGID_14_" gradientUnits="userSpaceOnUse" x1="93.4077" y1="150.2783" x2="76.1233" y2="203.9511">
			<stop  offset="0.2507" style="stop-color:#676767"/>
			<stop  offset="0.3365" style="stop-color:#5B5B5B"/>
			<stop  offset="0.4913" style="stop-color:#3C3C3C"/>
			<stop  offset="0.6963" style="stop-color:#090909"/>
			<stop  offset="0.7192" style="stop-color:#030303"/>
			<stop  offset="0.9894" style="stop-color:#000000"/>
		</linearGradient>
		<path fill="url(#SVGID_14_)" d="M97.332,157.775H72.203c-2.137,0-3.868,1.73-3.868,3.869v30.925c0,2.138,1.731,3.868,3.868,3.868
			h25.129c2.136,0,3.869-1.73,3.869-3.868v-30.925C101.201,159.506,99.468,157.775,97.332,157.775z M84.771,194.507
			c-1.07,0-1.938-0.868-1.938-1.938c0-1.062,0.868-1.931,1.938-1.931c1.063,0,1.929,0.868,1.929,1.931
			C86.7,193.639,85.835,194.507,84.771,194.507z M97.332,188.704H72.203v-27.06h25.129V188.704z"/>
	</g>
</g>
<rect x="72.203" y="161.645" fill="#5EBAAB" width="25.129" height="27.06"/>
<rect x="74.853" y="163.512" opacity="0.9" fill="#F4F5F5" width="8.603" height="2.415"/>
<rect x="74.853" y="167.672" opacity="0.9" fill="#F4F5F5" width="19.205" height="1.657"/>
<rect x="74.853" y="171.289" opacity="0.9" fill="#F4F5F5" width="19.205" height="1.654"/>
<rect x="74.853" y="174.904" opacity="0.9" fill="#F4F5F5" width="19.205" height="1.654"/>
<rect x="74.853" y="178.521" opacity="0.9" fill="#F4F5F5" width="19.205" height="1.655"/>
<rect x="74.853" y="182.139" opacity="0.9" fill="#F4F5F5" width="19.205" height="1.654"/>
<g id="_x32_26._iPad_7_">
	<g>
		<linearGradient id="SVGID_15_" gradientUnits="userSpaceOnUse" x1="93.4077" y1="150.2783" x2="76.1233" y2="203.9511">
			<stop  offset="0.2507" style="stop-color:#676767"/>
			<stop  offset="0.3365" style="stop-color:#5B5B5B"/>
			<stop  offset="0.4913" style="stop-color:#3C3C3C"/>
			<stop  offset="0.6963" style="stop-color:#090909"/>
			<stop  offset="0.7192" style="stop-color:#030303"/>
			<stop  offset="0.9894" style="stop-color:#000000"/>
		</linearGradient>
		<path fill="url(#SVGID_15_)" d="M97.332,157.775H72.203c-2.137,0-3.868,1.73-3.868,3.869v30.925c0,2.138,1.731,3.868,3.868,3.868
			h25.129c2.136,0,3.869-1.73,3.869-3.868v-30.925C101.201,159.506,99.468,157.775,97.332,157.775z M84.771,194.507
			c-1.07,0-1.938-0.868-1.938-1.938c0-1.062,0.868-1.931,1.938-1.931c1.063,0,1.929,0.868,1.929,1.931
			C86.7,193.639,85.835,194.507,84.771,194.507z M97.332,188.704H72.203v-27.06h25.129V188.704z"/>
	</g>
</g>
<g id="_x32_26._iPad_6_">
	<g>
		
			<linearGradient id="SVGID_16_" gradientUnits="userSpaceOnUse" x1="20.7739" y1="384.8486" x2="3.4891" y2="438.5226" gradientTransform="matrix(0 1 -1 0 535.3799 168.043)">
			<stop  offset="0.2507" style="stop-color:#676767"/>
			<stop  offset="0.3365" style="stop-color:#5B5B5B"/>
			<stop  offset="0.4913" style="stop-color:#3C3C3C"/>
			<stop  offset="0.6963" style="stop-color:#090909"/>
			<stop  offset="0.7192" style="stop-color:#030303"/>
			<stop  offset="0.9894" style="stop-color:#000000"/>
		</linearGradient>
		<path fill="url(#SVGID_16_)" d="M143.034,192.743v-25.131c0-2.138-1.731-3.865-3.866-3.865h-30.929
			c-2.137,0-3.868,1.728-3.868,3.865v25.131c0,2.132,1.731,3.866,3.868,3.866h30.929
			C141.303,196.609,143.034,194.875,143.034,192.743z M106.305,180.177c0-1.067,0.865-1.935,1.935-1.935
			c1.067,0,1.931,0.867,1.931,1.935c0,1.066-0.863,1.933-1.931,1.933C107.17,182.109,106.305,181.243,106.305,180.177z
			 M112.104,192.743v-25.131h27.063v25.131H112.104z"/>
	</g>
</g>
<rect x="112.104" y="167.612" fill="#5EBAAB" width="27.063" height="25.131"/>
<rect x="134.887" y="170.262" opacity="0.9" fill="#F4F5F5" width="2.412" height="8.602"/>
<rect x="131.481" y="170.262" opacity="0.9" fill="#F4F5F5" width="1.656" height="19.204"/>
<rect x="127.865" y="170.262" opacity="0.9" fill="#F4F5F5" width="1.656" height="19.204"/>
<rect x="124.25" y="170.262" opacity="0.9" fill="#F4F5F5" width="1.654" height="19.204"/>
<rect x="120.635" y="170.262" opacity="0.9" fill="#F4F5F5" width="1.656" height="19.204"/>
<rect x="117.016" y="170.262" opacity="0.9" fill="#F4F5F5" width="1.659" height="19.204"/>
<g id="_x32_26._iPad_5_">
	<g>
		
			<linearGradient id="SVGID_17_" gradientUnits="userSpaceOnUse" x1="20.7739" y1="384.8486" x2="3.4891" y2="438.5226" gradientTransform="matrix(0 1 -1 0 535.3799 168.043)">
			<stop  offset="0.2507" style="stop-color:#676767"/>
			<stop  offset="0.3365" style="stop-color:#5B5B5B"/>
			<stop  offset="0.4913" style="stop-color:#3C3C3C"/>
			<stop  offset="0.6963" style="stop-color:#090909"/>
			<stop  offset="0.7192" style="stop-color:#030303"/>
			<stop  offset="0.9894" style="stop-color:#000000"/>
		</linearGradient>
		<path fill="url(#SVGID_17_)" d="M143.034,192.743v-25.131c0-2.138-1.731-3.865-3.866-3.865h-30.929
			c-2.137,0-3.868,1.728-3.868,3.865v25.131c0,2.132,1.731,3.866,3.868,3.866h30.929
			C141.303,196.609,143.034,194.875,143.034,192.743z M106.305,180.177c0-1.067,0.865-1.935,1.935-1.935
			c1.067,0,1.931,0.867,1.931,1.935c0,1.066-0.863,1.933-1.931,1.933C107.17,182.109,106.305,181.243,106.305,180.177z
			 M112.104,192.743v-25.131h27.063v25.131H112.104z"/>
	</g>
</g>
<g>
	<g>
		
			<path fill="none" stroke="#123C5C" stroke-width="2.1667" stroke-linecap="round" stroke-linejoin="round" stroke-dasharray="3.7144,3.7144" d="
			M140.645,32.821c0,0,33.604,8.04,37.272,47.925"/>
		<g>
			<polygon fill="#123C5C" points="173.869,76.758 177.84,80.11 181.189,76.138 181.453,79.246 178.103,83.216 174.133,79.865 			
				"/>
		</g>
	</g>
</g>
<g>
	<g>
		
			<path fill="none" stroke="#123C5C" stroke-width="2.1667" stroke-linecap="round" stroke-linejoin="round" stroke-dasharray="3.7144,3.7144" d="
			M180.427,137.974c0,0-4.756,27.741-29.511,31.204"/>
		<g>
			<polygon fill="#123C5C" points="154.81,165.053 151.551,169.1 155.601,172.356 152.499,172.692 148.452,169.436 151.709,165.389 
							"/>
		</g>
	</g>
</g>
<g>
	<g>
		
			<path fill="none" stroke="#123C5C" stroke-width="2.1667" stroke-linecap="round" stroke-linejoin="round" stroke-dasharray="3.7144,3.7144" d="
			M52.665,172.943c0,0-29.816-8.133-28.606-32.502"/>
		<g>
			<polygon fill="#123C5C" points="27.361,145.055 24.016,141.079 20.041,144.427 20.309,141.319 24.282,137.974 27.628,141.947 			
				"/>
		</g>
	</g>
</g>
<g>
	<g>
		<path fill="#123C5C" d="M117.169,148.828h3.833v0.556h-1.659v4.964h-0.558v-4.964h-1.616V148.828z"/>
		<path fill="#123C5C" d="M120.588,152.939c0-0.604,0.377-1.003,1.003-1.003c0,0,1.679,0.007,1.679,0c0,0,0.006-0.5,0-0.509
			c0-0.458-0.244-0.615-0.623-0.615c-0.542,0-1.196,0.037-1.931,0.09v-0.406c0.537-0.151,1.208-0.221,1.955-0.229
			c0.624-0.01,1.154,0.333,1.154,1.16v2.92h-0.415l-0.141-0.48c-0.018,0-0.991,0.528-1.679,0.528c-0.55,0-1.003-0.354-1.003-0.997
			V152.939z M121.591,153.839c0.604,0,1.679-0.387,1.679-0.387v-1.08l-1.679,0.122c-0.323,0.03-0.445,0.248-0.445,0.491v0.379
			C121.146,153.724,121.336,153.839,121.591,153.839z"/>
		<path fill="#123C5C" d="M124.656,148.425h0.544v2.159c0.481-0.197,1.148-0.302,1.486-0.302c1.141,0,1.32,1.055,1.32,2.084
			c0,0.921-0.226,2.029-1.32,2.029c-0.514,0-1.284-0.347-1.48-0.491l-0.15,0.443h-0.399V148.425z M126.687,153.839
			c0.492,0,0.761-0.491,0.761-1.473c0-1.229-0.28-1.522-0.761-1.522c-0.583,0-0.958,0.059-1.48,0.194v2.452
			C125.616,153.656,126.091,153.839,126.687,153.839z"/>
		<path fill="#123C5C" d="M128.838,148.441h0.556v4.48c0,0.66,0.177,0.812,0.433,0.87c0,0,0.618,0.157,0.673,0.157v0.398h-0.666
			c-0.581,0-0.995-0.359-0.995-1.426V148.441z"/>
		<path fill="#123C5C" d="M132.4,150.314c0.943,0,1.533,0.09,1.533,1.418c0,0.583-0.312,0.92-1.038,0.92h-1.688
			c0,0.942,0.175,1.177,0.762,1.177c0.696,0,1.323,0.01,1.888-0.072v0.421c-0.612,0.17-1.261,0.209-1.888,0.209
			c-1.02,0-1.32-0.488-1.32-2.057C130.648,150.54,131.163,150.314,132.4,150.314z M132.896,152.102c0.335,0,0.478-0.121,0.478-0.369
			c0-0.794-0.149-0.861-0.967-0.861c-0.853,0-1.199,0.009-1.199,1.23H132.896z"/>
		<path fill="#123C5C" d="M134.385,150.471l0.748-0.135l0.137-1.117h0.423v1.117h1.167v0.558h-1.167v2.024
			c0,0.655,0.173,0.806,0.43,0.866c0,0,0.618,0.158,0.669,0.158v0.4h-0.66c-0.583,0-0.998-0.361-0.998-1.425v-2.024h-0.748V150.471z
			"/>
	</g>
	<path opacity="0.3" fill="#123C5C" d="M139.604,143.165h-23.961c-1.998,0-3.617,1.423-3.617,3.179v9.618
		c0,0.231,0.027,0.46,0.079,0.675l0,0l-0.528,4.1l4.723-1.59h23.305c1.996,0,3.613-1.427,3.613-3.185v-9.618
		C143.217,144.588,141.6,143.165,139.604,143.165z"/>
</g>
<defs>
	<filter id="Adobe_OpacityMaskFilter_4_" filterUnits="userSpaceOnUse" x="0" y="129.237" width="22.221" height="1.74">
		<feColorMatrix  type="matrix" values="1 0 0 0 0  0 1 0 0 0  0 0 1 0 0  0 0 0 1 0"/>
	</filter>
</defs>
<mask maskUnits="userSpaceOnUse" x="0" y="129.237" width="22.221" height="1.74" id="SVGID_18_">
	<g filter="url(#Adobe_OpacityMaskFilter_4_)">
		
			<radialGradient id="SVGID_19_" cx="11.1104" cy="2450.2217" r="11.1118" gradientTransform="matrix(1 0 0 0.0783 0 -61.7453)" gradientUnits="userSpaceOnUse">
			<stop  offset="0" style="stop-color:#FFFFFF"/>
			<stop  offset="1" style="stop-color:#191812"/>
		</radialGradient>
		<path fill="url(#SVGID_19_)" d="M22.221,130.107c0,0.48-4.973,0.87-11.109,0.87c-6.139,0-11.111-0.39-11.111-0.87
			c0-0.481,4.972-0.87,11.111-0.87C17.248,129.237,22.221,129.626,22.221,130.107z"/>
	</g>
</mask>
<linearGradient id="SVGID_20_" gradientUnits="userSpaceOnUse" x1="11.1133" y1="130.9756" x2="11.1083" y2="129.2508">
	<stop  offset="0" style="stop-color:#4E4949"/>
	<stop  offset="0.3539" style="stop-color:#191812"/>
	<stop  offset="1" style="stop-color:#191812"/>
</linearGradient>
<path opacity="0.33" mask="url(#SVGID_18_)" fill="url(#SVGID_20_)" d="M22.221,130.107c0,0.48-4.973,0.87-11.109,0.87
	c-6.139,0-11.111-0.39-11.111-0.87c0-0.481,4.972-0.87,11.111-0.87C17.248,129.237,22.221,129.626,22.221,130.107z"/>
<defs>
	<filter id="Adobe_OpacityMaskFilter_5_" filterUnits="userSpaceOnUse" x="22.792" y="128.741" width="34.885" height="2.733">
		<feColorMatrix  type="matrix" values="1 0 0 0 0  0 1 0 0 0  0 0 1 0 0  0 0 0 1 0"/>
	</filter>
</defs>
<mask maskUnits="userSpaceOnUse" x="22.792" y="128.741" width="34.885" height="2.733" id="SVGID_21_">
	<g filter="url(#Adobe_OpacityMaskFilter_5_)">
		
			<radialGradient id="SVGID_22_" cx="40.2344" cy="2450.2295" r="17.4497" gradientTransform="matrix(1 0 0 0.0783 0 -61.7453)" gradientUnits="userSpaceOnUse">
			<stop  offset="0" style="stop-color:#FFFFFF"/>
			<stop  offset="1" style="stop-color:#191812"/>
		</radialGradient>
		<ellipse fill="url(#SVGID_22_)" cx="40.234" cy="130.107" rx="17.442" ry="1.367"/>
	</g>
</mask>
<linearGradient id="SVGID_23_" gradientUnits="userSpaceOnUse" x1="40.2388" y1="131.4717" x2="40.231" y2="128.7636">
	<stop  offset="0" style="stop-color:#4E4949"/>
	<stop  offset="0.3539" style="stop-color:#191812"/>
	<stop  offset="1" style="stop-color:#191812"/>
</linearGradient>
<ellipse opacity="0.33" mask="url(#SVGID_21_)" fill="url(#SVGID_23_)" cx="40.234" cy="130.107" rx="17.442" ry="1.367"/>
<g>
	<linearGradient id="SVGID_24_" gradientUnits="userSpaceOnUse" x1="15.0928" y1="84.0371" x2="5.499" y2="129.3195">
		<stop  offset="0.2507" style="stop-color:#676767"/>
		<stop  offset="0.3365" style="stop-color:#5B5B5B"/>
		<stop  offset="0.4913" style="stop-color:#3C3C3C"/>
		<stop  offset="0.6963" style="stop-color:#090909"/>
		<stop  offset="0.7192" style="stop-color:#030303"/>
		<stop  offset="0.9894" style="stop-color:#000000"/>
	</linearGradient>
	<path fill="url(#SVGID_24_)" d="M18.391,88.229H1.976C0.886,88.229,0,89.082,0,90.13v34.152c0,1.051,0.886,1.901,1.976,1.901
		h16.415c1.091,0,1.977-0.851,1.977-1.901V90.128C20.367,89.082,19.481,88.229,18.391,88.229z M7.317,91.187h5.731v0.4H7.317V91.187
		z M10.185,124.195c-0.61,0-1.105-0.494-1.105-1.104c0-0.61,0.495-1.104,1.105-1.104c0.607,0,1.104,0.496,1.104,1.104
		C11.289,123.701,10.792,124.195,10.185,124.195z M19.02,120.062H1.349V93.875h17.67V120.062z"/>
</g>
<rect x="1.349" y="93.875" fill="#5EBAAB" width="17.67" height="26.187"/>
<rect x="2.364" y="96.286" opacity="0.9" fill="#F4F5F5" width="15.606" height="1.542"/>
<rect x="2.364" y="99.833" opacity="0.9" fill="#F4F5F5" width="15.606" height="1.544"/>
<rect x="2.364" y="103.383" opacity="0.9" fill="#F4F5F5" width="15.606" height="1.546"/>
<rect x="2.364" y="108.914" opacity="0.9" fill="#F4F5F5" width="15.606" height="7.793"/>
<g>
	
		<linearGradient id="SVGID_25_" gradientUnits="userSpaceOnUse" x1="423.6328" y1="450.7451" x2="414.0388" y2="496.0286" gradientTransform="matrix(0 1 -1 0 515.1123 -302.0181)">
		<stop  offset="0.2507" style="stop-color:#676767"/>
		<stop  offset="0.3365" style="stop-color:#5B5B5B"/>
		<stop  offset="0.4913" style="stop-color:#3C3C3C"/>
		<stop  offset="0.6963" style="stop-color:#090909"/>
		<stop  offset="0.7192" style="stop-color:#030303"/>
		<stop  offset="0.9894" style="stop-color:#000000"/>
	</linearGradient>
	<path fill="url(#SVGID_25_)" d="M60.176,124.915v-16.416c0-1.091-0.853-1.978-1.901-1.978H24.122c-1.05,0-1.901,0.887-1.901,1.978
		v16.416c0,1.089,0.852,1.975,1.901,1.975h34.154C59.326,126.89,60.176,126.004,60.176,124.915z M57.223,113.839v5.733h-0.403
		v-5.733H57.223z M24.213,116.707c0-0.609,0.493-1.106,1.104-1.106c0.606,0,1.101,0.497,1.101,1.106
		c0,0.608-0.494,1.104-1.101,1.104C24.706,117.812,24.213,117.315,24.213,116.707z M28.348,125.542v-17.669h26.184v17.669H28.348z"
		/>
</g>
<rect x="28.348" y="107.873" fill="#5EBAAB" width="26.184" height="17.669"/>
<rect x="50.578" y="108.888" opacity="0.9" fill="#F4F5F5" width="1.544" height="15.603"/>
<rect x="47.028" y="108.888" opacity="0.9" fill="#F4F5F5" width="1.543" height="15.603"/>
<rect x="43.479" y="108.888" opacity="0.9" fill="#F4F5F5" width="1.544" height="15.603"/>
<rect x="31.703" y="108.888" opacity="0.9" fill="#F4F5F5" width="7.788" height="15.603"/>
<g>
	<g>
		<path fill="#123C5C" d="M36.01,80.8c0-0.821,0.49-1.008,1.125-1.008c0.301,0,1.199,0.106,1.414,0.136v0.339
			c-0.36-0.021-1.414-0.057-1.414-0.057c-0.396-0.015-0.703,0.021-0.703,0.59v0.372c0,0.518,0.238,0.559,0.577,0.559h0.806
			c0.754,0,0.883,0.507,0.883,0.972v0.388c0,0.802-0.584,0.927-1.145,0.927c-0.278,0-1.155-0.097-1.414-0.143v-0.34
			c0.227,0.024,0.888,0.063,1.414,0.063c0.232,0,0.727-0.012,0.727-0.508v-0.388c0-0.324-0.098-0.555-0.465-0.555h-0.794
			c-0.906,0-1.011-0.498-1.011-0.976V80.8z"/>
		<path fill="#123C5C" d="M39.294,80.963h0.292l0.125,0.365c0.347-0.2,0.623-0.397,1.073-0.397c0.364,0,0.698,0.16,0.831,0.439
			c0.294-0.242,0.707-0.439,1.213-0.439c0.521,0,0.928,0.389,0.928,0.968v2.073h-0.418v-2.073c0-0.335-0.217-0.549-0.51-0.549
			c-0.449,0-0.737,0.074-1.111,0.317v0.219v2.086H41.3v-2.073c0-0.335-0.224-0.549-0.516-0.549c-0.439,0-0.639,0.108-1.073,0.317
			v2.305h-0.417V80.963z"/>
		<path fill="#123C5C" d="M44.265,82.911c0-0.452,0.284-0.753,0.753-0.753c0,0,1.259,0.007,1.259,0c0,0,0.008-0.374,0-0.379
			c0-0.346-0.18-0.462-0.465-0.462c-0.407,0-0.899,0.026-1.45,0.066v-0.308c0.403-0.113,0.907-0.162,1.469-0.167
			c0.471-0.007,0.868,0.248,0.868,0.87v2.192h-0.313l-0.108-0.363c-0.013,0-0.743,0.396-1.259,0.396
			c-0.412,0-0.753-0.266-0.753-0.746V82.911z M45.018,83.586c0.455,0,1.259-0.287,1.259-0.287v-0.812l-1.259,0.09
			c-0.243,0.025-0.333,0.188-0.333,0.369v0.283C44.685,83.503,44.825,83.586,45.018,83.586z"/>
		<path fill="#123C5C" d="M47.319,80.963h0.297l0.121,0.381c0.346-0.198,0.657-0.413,1.122-0.413c0.164,0,0.352,0.01,0.421,0.044
			v0.414c-0.069-0.019-0.257-0.034-0.421-0.034c-0.452,0-0.688,0.118-1.122,0.329v2.288h-0.418V80.963z"/>
		<path fill="#123C5C" d="M49.507,81.062l0.558-0.104l0.106-0.84h0.314v0.84h0.879v0.419h-0.879v1.517
			c0,0.491,0.131,0.608,0.322,0.652c0,0,0.464,0.117,0.506,0.117v0.301h-0.498c-0.439,0-0.751-0.271-0.751-1.07v-1.517h-0.558
			V81.062z"/>
		<path fill="#123C5C" d="M51.874,80.963h0.299l0.109,0.335c0.146-0.107,0.73-0.367,1.113-0.367c0.821,0,0.993,0.831,0.993,1.522
			c0,0.771-0.136,1.563-0.993,1.563c-0.251,0-0.753-0.079-1.113-0.227v1.709h-0.408V80.963z M53.396,83.598
			c0.364,0,0.574-0.22,0.574-1.145c0-0.738-0.204-1.104-0.574-1.104c-0.446,0-0.807,0.135-1.113,0.259v1.841
			C52.672,83.554,52.96,83.598,53.396,83.598z"/>
		<path fill="#123C5C" d="M55.013,79.527h0.418v1.79c0.347-0.199,0.653-0.403,1.111-0.403c0.6,0,0.928,0.464,0.928,0.962v2.096
			h-0.419v-2.096c0-0.373-0.214-0.544-0.509-0.544c-0.453,0-0.676,0.113-1.111,0.322v2.317h-0.418V79.527z"/>
		<path fill="#123C5C" d="M59.305,80.936c1.016,0,1.325,0.382,1.325,1.575c0,1.114-0.31,1.488-1.325,1.488
			c-1.011,0-1.325-0.413-1.325-1.488C57.979,81.28,58.32,80.936,59.305,80.936z M59.305,83.582c0.611,0,0.907-0.079,0.907-1.071
			c0-1.077-0.245-1.156-0.907-1.156c-0.636,0-0.905,0.073-0.905,1.156C58.399,83.513,58.723,83.582,59.305,83.582z"/>
		<path fill="#123C5C" d="M61.253,80.963h0.295l0.123,0.354c0.348-0.199,0.653-0.403,1.112-0.403c0.601,0,0.929,0.464,0.929,0.962
			v2.096h-0.421v-2.096c0-0.373-0.221-0.544-0.508-0.544c-0.451,0-0.675,0.113-1.112,0.322v2.317h-0.418V80.963z"/>
		<path fill="#123C5C" d="M65.535,80.94c0.711,0,1.151,0.068,1.151,1.066c0,0.436-0.232,0.689-0.776,0.689h-1.269
			c0,0.707,0.129,0.886,0.572,0.886c0.521,0,0.989,0.004,1.415-0.058v0.318c-0.459,0.129-0.946,0.156-1.415,0.156
			c-0.764,0-0.991-0.365-0.991-1.546C64.223,81.11,64.605,80.94,65.535,80.94z M65.91,82.285c0.248,0,0.356-0.092,0.356-0.278
			c0-0.597-0.112-0.645-0.726-0.645c-0.64,0-0.899,0.003-0.899,0.923H65.91z"/>
	</g>
	<path opacity="0.3" fill="#123C5C" d="M67.226,72.805H36.057c-2.599,0-4.707,1.567-4.707,3.5v10.58
		c0,0.253,0.041,0.501,0.108,0.741l0,0l-0.688,4.51l6.141-1.75h30.315c2.598,0,4.703-1.569,4.703-3.501v-10.58
		C71.929,74.372,69.823,72.805,67.226,72.805z"/>
</g>
<linearGradient id="SVGID_26_" gradientUnits="userSpaceOnUse" x1="195.1426" y1="74.0132" x2="171.49" y2="137.6934">
	<stop  offset="0.0818" style="stop-color:#676767"/>
	<stop  offset="0.1739" style="stop-color:#5B5B5B"/>
	<stop  offset="0.3401" style="stop-color:#3C3C3C"/>
	<stop  offset="0.56" style="stop-color:#090909"/>
	<stop  offset="0.5846" style="stop-color:#030303"/>
	<stop  offset="0.9894" style="stop-color:#000000"/>
</linearGradient>
<path fill="url(#SVGID_26_)" d="M203.531,87.48h-41.884c-2.664,0-4.83,2.167-4.83,4.835v20.943c0,2.66,2.166,4.831,4.83,4.831
	h41.884c2.665,0,4.832-2.171,4.832-4.831V92.315C208.363,89.647,206.196,87.48,203.531,87.48z M205.144,113.259
	c0,0.884-0.722,1.607-1.612,1.607h-41.884c-0.889,0-1.609-0.724-1.609-1.607V92.315c0-0.886,0.721-1.612,1.609-1.612h41.884
	c0.891,0,1.612,0.727,1.612,1.612V113.259z M205.946,121.312h-16.913c0,0.889-0.721,1.609-1.611,1.609h-9.665
	c-0.89,0-1.61-0.721-1.61-1.609h-16.917c-1.329,0-2.412,1.081-2.412,2.416c0,1.336,1.083,2.416,2.412,2.416h46.717
	c1.335,0,2.417-1.08,2.417-2.416C208.363,122.393,207.281,121.312,205.946,121.312z"/>
<path fill="#5EBAAB" d="M205.379,91.791c0-1.063-0.893-1.924-1.991-1.924h-41.356c-1.102,0-1.993,0.86-1.993,1.924v21.154
	c0,1.062,0.892,1.921,1.993,1.921h41.356c1.099,0,1.991-0.859,1.991-1.921V91.791z"/>
<rect x="163.226" y="91.791" opacity="0.9" fill="#F4F5F5" width="17.201" height="1.72"/>
<rect x="184.379" y="91.975" opacity="0.9" fill="#F4F5F5" width="17.2" height="4.826"/>
<rect x="163.226" y="95.264" opacity="0.9" fill="#F4F5F5" width="17.201" height="1.72"/>
<rect x="163.226" y="98.734" opacity="0.9" fill="#F4F5F5" width="17.201" height="1.722"/>
<rect x="163.226" y="102.209" opacity="0.9" fill="#F4F5F5" width="17.201" height="1.722"/>
<g>
	<g>
		<path fill="#123C5C" d="M195.036,71.385h1.544c1.276,0,1.479,1.241,1.479,2.094c0,0.94-0.382,2.059-1.479,2.059h-1.544V71.385z
			 M196.58,75.102c0.751,0,1.059-0.757,1.059-1.627c0-1.218-0.4-1.667-1.059-1.667h-1.121v3.294H196.58z"/>
		<path fill="#123C5C" d="M199.8,72.504c0.709,0,1.15,0.066,1.15,1.066c0,0.438-0.232,0.691-0.776,0.691h-1.272
			c0,0.709,0.131,0.887,0.575,0.887c0.521,0,0.994,0.003,1.418-0.058v0.315c-0.459,0.131-0.947,0.16-1.418,0.16
			c-0.764,0-0.993-0.369-0.993-1.548C198.483,72.672,198.869,72.504,199.8,72.504z M200.174,73.849c0.252,0,0.357-0.094,0.357-0.278
			c0-0.598-0.113-0.648-0.726-0.648c-0.643,0-0.904,0.005-0.904,0.927H200.174z"/>
		<path fill="#123C5C" d="M201.404,73.247c0-0.466,0.199-0.75,0.786-0.75c0.294,0,1.183,0.064,1.48,0.09v0.325h-1.48
			c-0.365,0-0.365,0.14-0.365,0.335v0.262c0,0.31,0.155,0.321,0.365,0.321h0.895c0.494,0,0.738,0.306,0.738,0.732v0.278
			c0,0.616-0.374,0.726-0.738,0.726c-0.278,0-1.339-0.085-1.554-0.109v-0.309h1.554c0,0,0.321,0.032,0.321-0.308v-0.278
			c0-0.2-0.068-0.312-0.321-0.312h-0.895c-0.534,0-0.786-0.16-0.786-0.741V73.247z"/>
		<path fill="#123C5C" d="M204.391,71.101h0.418v2.495h0.23l1.15-1.069h0.585l-1.337,1.282l1.337,1.729h-0.521l-1.214-1.519h-0.23
			v1.519h-0.418V71.101z"/>
		<path fill="#123C5C" d="M207.001,72.623l0.562-0.102l0.104-0.843h0.317v0.843h0.88v0.418h-0.88v1.52
			c0,0.494,0.131,0.609,0.324,0.653c0,0,0.466,0.119,0.506,0.119v0.301h-0.501c-0.438,0-0.75-0.274-0.75-1.073v-1.52h-0.562V72.623z
			"/>
		<path fill="#123C5C" d="M210.647,72.497c1.013,0,1.326,0.381,1.326,1.576c0,1.117-0.313,1.493-1.326,1.493
			c-1.017,0-1.328-0.415-1.328-1.493C209.319,72.843,209.658,72.497,210.647,72.497z M210.647,75.148
			c0.613,0,0.904-0.08,0.904-1.075c0-1.077-0.244-1.158-0.904-1.158c-0.64,0-0.911,0.075-0.911,1.158
			C209.736,75.08,210.062,75.148,210.647,75.148z"/>
		<path fill="#123C5C" d="M212.599,72.526h0.3l0.107,0.334c0.147-0.108,0.732-0.368,1.118-0.368c0.823,0,0.993,0.834,0.993,1.526
			c0,0.771-0.137,1.565-0.993,1.565c-0.255,0-0.754-0.08-1.118-0.227v1.711h-0.407V72.526z M214.124,75.163
			c0.362,0,0.571-0.221,0.571-1.145c0-0.739-0.204-1.106-0.571-1.106c-0.448,0-0.812,0.136-1.118,0.258v1.848
			C213.397,75.118,213.687,75.163,214.124,75.163z"/>
	</g>
	<path opacity="0.3" fill="#123C5C" d="M216.237,66.491h-22.849c-1.903,0-3.447,1.378-3.447,3.074v9.287
		c0,0.226,0.027,0.442,0.077,0.651l0,0l-0.505,3.957l4.5-1.537h22.224c1.906,0,3.451-1.372,3.451-3.071v-9.287
		C219.688,67.869,218.144,66.491,216.237,66.491z"/>
</g>
<g>
	<g>
		<path fill="#123C5C" d="M139.956,4.57h1.544c1.277,0,1.475,1.244,1.475,2.094c0,0.942-0.381,2.061-1.475,2.061h-1.544V4.57z
			 M141.5,8.289c0.748,0,1.058-0.756,1.058-1.63c0-1.216-0.401-1.668-1.058-1.668h-1.122v3.298H141.5z"/>
		<path fill="#123C5C" d="M144.718,5.69c0.709,0,1.152,0.067,1.152,1.064c0,0.437-0.232,0.693-0.778,0.693h-1.271
			c0,0.709,0.131,0.884,0.574,0.884c0.52,0,0.989,0.008,1.417-0.056v0.318c-0.459,0.13-0.947,0.158-1.417,0.158
			c-0.769,0-0.994-0.368-0.994-1.55C143.401,5.86,143.787,5.69,144.718,5.69z M145.092,7.035c0.251,0,0.359-0.093,0.359-0.28
			c0-0.596-0.114-0.645-0.727-0.645c-0.643,0-0.903,0.005-0.903,0.925H145.092z"/>
		<path fill="#123C5C" d="M146.325,6.433c0-0.466,0.198-0.75,0.782-0.75c0.295,0,1.186,0.063,1.48,0.092v0.324h-1.48
			c-0.364,0-0.364,0.141-0.364,0.334v0.26c0,0.313,0.155,0.324,0.364,0.324h0.895c0.494,0,0.74,0.308,0.74,0.731v0.278
			c0,0.619-0.377,0.727-0.74,0.727c-0.274,0-1.337-0.085-1.553-0.107V8.332h1.553c0,0,0.32,0.034,0.32-0.306V7.748
			c0-0.197-0.067-0.312-0.32-0.312h-0.895c-0.533,0-0.782-0.158-0.782-0.744V6.433z"/>
		<path fill="#123C5C" d="M149.309,4.287h0.42v2.498h0.229l1.151-1.073h0.582l-1.339,1.282l1.339,1.73h-0.522l-1.211-1.521h-0.229
			v1.521h-0.42V4.287z"/>
		<path fill="#123C5C" d="M151.92,5.807l0.562-0.102l0.102-0.839h0.318v0.839h0.878v0.42h-0.878v1.521
			c0,0.495,0.129,0.608,0.324,0.653c0,0,0.465,0.12,0.503,0.12V8.72h-0.497c-0.439,0-0.75-0.273-0.75-1.074V6.125h-0.562V5.807z"/>
		<path fill="#123C5C" d="M155.562,5.683c1.018,0,1.329,0.382,1.329,1.577c0,1.119-0.312,1.493-1.329,1.493
			c-1.015,0-1.327-0.413-1.327-1.493C154.235,6.03,154.576,5.683,155.562,5.683z M155.562,8.332c0.612,0,0.91-0.078,0.91-1.072
			c0-1.076-0.244-1.156-0.91-1.156c-0.634,0-0.906,0.072-0.906,1.156C154.656,8.265,154.978,8.332,155.562,8.332z"/>
		<path fill="#123C5C" d="M157.516,5.712h0.301l0.107,0.334c0.146-0.106,0.73-0.368,1.115-0.368c0.828,0,0.997,0.833,0.997,1.525
			c0,0.772-0.138,1.566-0.997,1.566c-0.25,0-0.753-0.078-1.115-0.226v1.714h-0.408V5.712z M159.039,8.35
			c0.367,0,0.577-0.223,0.577-1.146c0-0.737-0.204-1.104-0.577-1.104c-0.445,0-0.808,0.136-1.115,0.26v1.846
			C158.316,8.306,158.605,8.35,159.039,8.35z"/>
		<path fill="#123C5C" d="M140.475,11.922c0.295,0,0.896,0.074,1.293,0.148v0.308c0,0-0.789-0.034-1.293-0.034
			c-0.339,0-0.574,0.062-0.574,1.134c0,0.868,0.166,1.095,0.574,1.095c0.524,0,1.335-0.062,1.335-0.062v0.318
			c-0.459,0.132-0.863,0.158-1.335,0.163c-0.559,0-0.992-0.214-0.992-1.537C139.482,12.138,139.896,11.922,140.475,11.922z"/>
		<path fill="#123C5C" d="M143.535,11.922c1.015,0,1.328,0.381,1.328,1.578c0,1.117-0.313,1.491-1.328,1.491
			c-1.017,0-1.33-0.413-1.33-1.491C142.205,12.269,142.547,11.922,143.535,11.922z M143.535,14.572c0.61,0,0.906-0.079,0.906-1.072
			c0-1.079-0.242-1.156-0.906-1.156c-0.637,0-0.906,0.073-0.906,1.156C142.629,14.504,142.949,14.572,143.535,14.572z"/>
		<path fill="#123C5C" d="M145.486,11.949h0.296l0.125,0.365c0.347-0.201,0.624-0.397,1.073-0.397c0.364,0,0.699,0.165,0.833,0.442
			c0.294-0.246,0.707-0.442,1.216-0.442c0.521,0,0.93,0.392,0.93,0.97v2.078h-0.42v-2.078c0-0.334-0.216-0.551-0.51-0.551
			c-0.449,0-0.741,0.074-1.113,0.319v0.22v2.09h-0.421v-2.078c0-0.334-0.221-0.551-0.515-0.551c-0.439,0-0.637,0.11-1.073,0.319
			v2.31h-0.421V11.949z"/>
		<path fill="#123C5C" d="M150.583,11.949h0.303l0.105,0.336c0.147-0.108,0.732-0.368,1.116-0.368c0.824,0,0.995,0.834,0.995,1.526
			c0,0.773-0.136,1.566-0.995,1.566c-0.252,0-0.753-0.079-1.116-0.228v1.715h-0.408V11.949z M152.107,14.591
			c0.366,0,0.576-0.224,0.576-1.147c0-0.738-0.204-1.107-0.576-1.107c-0.446,0-0.812,0.137-1.116,0.261v1.845
			C151.384,14.543,151.674,14.591,152.107,14.591z"/>
		<path fill="#123C5C" d="M153.669,11.949h0.421v2.103c0,0.374,0.223,0.544,0.512,0.544c0.454,0,0.674-0.113,1.11-0.323v-2.323
			h0.423v3.016h-0.296l-0.127-0.353c-0.346,0.198-0.649,0.401-1.11,0.401c-0.602,0-0.933-0.466-0.933-0.962V11.949z"/>
		<path fill="#123C5C" d="M156.588,12.048l0.561-0.102l0.104-0.841h0.317v0.841h0.88v0.417h-0.88v1.523
			c0,0.492,0.131,0.606,0.32,0.651c0,0,0.466,0.119,0.51,0.119v0.303h-0.5c-0.439,0-0.752-0.273-0.752-1.073v-1.523h-0.561V12.048z"
			/>
		<path fill="#123C5C" d="M160.22,11.927c0.709,0,1.153,0.069,1.153,1.068c0,0.438-0.235,0.692-0.779,0.692h-1.27
			c0,0.708,0.129,0.885,0.571,0.885c0.521,0,0.994,0.006,1.419-0.056v0.316c-0.458,0.132-0.947,0.158-1.419,0.158
			c-0.766,0-0.993-0.369-0.993-1.548C158.902,12.097,159.287,11.927,160.22,11.927z M160.594,13.273
			c0.252,0,0.357-0.092,0.357-0.278c0-0.598-0.111-0.647-0.726-0.647c-0.643,0-0.901,0.005-0.901,0.926H160.594z"/>
		<path fill="#123C5C" d="M161.939,11.949h0.296l0.122,0.381c0.348-0.199,0.659-0.413,1.126-0.413c0.165,0,0.354,0.01,0.419,0.045
			v0.416c-0.065-0.019-0.254-0.034-0.419-0.034c-0.455,0-0.688,0.118-1.126,0.327v2.294h-0.418V11.949z"/>
	</g>
	<path opacity="0.3" fill="#123C5C" d="M164.052,0h-26.958c-2.247,0-4.068,1.824-4.068,4.07v12.295c0,0.297,0.033,0.585,0.093,0.862
		l0,0l-0.598,5.242l5.313-2.035h26.218c2.246,0,4.068-1.821,4.068-4.069V4.07C168.12,1.824,166.298,0,164.052,0z"/>
</g>
<g>
	<g>
		
			<path fill="none" stroke="#123C5C" stroke-width="2.1667" stroke-linecap="round" stroke-linejoin="round" stroke-dasharray="3.7144,3.7144" d="
			M27.133,73.279c0,0,0.728-27.702,36.703-40.089"/>
		<g>
			<polygon fill="#123C5C" points="61.043,38.175 63.257,33.474 58.555,31.263 61.489,30.206 66.189,32.418 63.978,37.118 			"/>
		</g>
	</g>
</g>
<defs>
	<filter id="Adobe_OpacityMaskFilter_6_" filterUnits="userSpaceOnUse" x="155.851" y="126.144" width="48.252" height="4.308">
		<feColorMatrix  type="matrix" values="1 0 0 0 0  0 1 0 0 0  0 0 1 0 0  0 0 0 1 0"/>
	</filter>
</defs>
<mask maskUnits="userSpaceOnUse" x="155.851" y="126.144" width="48.252" height="4.308" id="SVGID_27_">
	<g filter="url(#Adobe_OpacityMaskFilter_6_)">
		
			<radialGradient id="SVGID_28_" cx="179.9766" cy="-384.4775" r="24.1216" gradientTransform="matrix(1 0 0 0.0893 0 162.631)" gradientUnits="userSpaceOnUse">
			<stop  offset="0" style="stop-color:#FFFFFF"/>
			<stop  offset="1" style="stop-color:#191812"/>
		</radialGradient>
		<path fill="url(#SVGID_28_)" d="M204.103,128.301c0,1.189-10.803,2.15-24.126,2.15c-13.326,0-24.126-0.961-24.126-2.15
			c0-1.193,10.8-2.157,24.126-2.157C193.3,126.144,204.103,127.107,204.103,128.301z"/>
	</g>
</mask>
<linearGradient id="SVGID_29_" gradientUnits="userSpaceOnUse" x1="179.9834" y1="130.4463" x2="179.9712" y2="126.1797">
	<stop  offset="0" style="stop-color:#4E4949"/>
	<stop  offset="0.3539" style="stop-color:#191812"/>
	<stop  offset="1" style="stop-color:#191812"/>
</linearGradient>
<path opacity="0.33" mask="url(#SVGID_27_)" fill="url(#SVGID_29_)" d="M204.103,128.301c0,1.189-10.803,2.15-24.126,2.15
	c-13.326,0-24.126-0.961-24.126-2.15c0-1.193,10.8-2.157,24.126-2.157C193.3,126.144,204.103,127.107,204.103,128.301z"/>
</svg>
