<?xml version="1.0" encoding="utf-8"?>
<!-- Generator: Adobe Illustrator 16.0.0, SVG Export Plug-In . SVG Version: 6.00 Build 0)  -->
<!DOCTYPE svg PUBLIC "-//W3C//DTD SVG 1.1//EN" "http://www.w3.org/Graphics/SVG/1.1/DTD/svg11.dtd">
<svg version="1.1" id="Layer_1" xmlns="http://www.w3.org/2000/svg" xmlns:xlink="http://www.w3.org/1999/xlink" x="0px" y="0px"
	 width="166.065px" height="201.191px" viewBox="0 0 166.065 201.191" enable-background="new 0 0 166.065 201.191"
	 xml:space="preserve">
<g>
	<path fill="#FFF1B5" d="M84.476,158.965c-3.846,1.771-10.998-0.939-15.987-5.928l-24.552-24.55
		c-4.991-4.991-7.595-12.357-5.696-16.458c1.901-4.103,3.767-4.116,4.666-0.545s0.98,6.687,5.974,11.681l25.112,25.112
		c4.994,4.993,7.529,4.812,10.909,5.905C88.282,155.271,88.32,157.193,84.476,158.965z"/>
	<path fill="#544841" d="M84.833,158.608c-3.846,1.771-11.354-0.583-16.343-5.571l-24.552-24.55
		c-4.991-4.991-7.239-12.711-5.34-16.816c1.899-4.099,4.23-4.577,5.126-1.003c0.901,3.568,1.446,6.221,6.44,11.214l25.112,25.112
		c4.994,4.994,7.066,5.276,10.446,6.366C89.101,154.449,88.679,156.837,84.833,158.608z"/>
	<circle fill="#C1282D" cx="41.387" cy="131.659" r="3.208"/>
	<circle fill="#E6E6E5" cx="41.387" cy="131.659" r="1.519"/>
	
		<ellipse transform="matrix(0.7071 0.7071 -0.7071 0.7071 100.8558 2.288)" fill="#E6E6E5" cx="47.666" cy="122.888" rx="0.565" ry="0.249"/>
	<path fill="#E6E6E5" d="M46.289,125.069c-0.097,0.097-0.356-0.006-0.578-0.225c-0.222-0.224-0.321-0.48-0.224-0.578
		c0.094-0.096,0.354,0.006,0.575,0.227C46.284,124.713,46.383,124.972,46.289,125.069z"/>
	<path fill="#E6E6E5" d="M50.558,125.779c-0.097,0.097-0.354-0.003-0.578-0.225c-0.219-0.221-0.32-0.479-0.224-0.577
		c0.099-0.097,0.356,0.005,0.575,0.227C50.552,125.425,50.657,125.683,50.558,125.779z"/>
	
		<ellipse transform="matrix(0.706 0.7082 -0.7082 0.706 104.2731 3.1198)" fill="#E6E6E5" cx="48.379" cy="127.158" rx="0.566" ry="0.249"/>
	<circle fill="#C1282D" cx="66.116" cy="156.389" r="3.208"/>
	<path fill="#E6E6E5" d="M67.191,157.463c-0.595,0.593-1.558,0.593-2.148,0c-0.596-0.593-0.596-1.555,0-2.148
		c0.59-0.593,1.553-0.593,2.148,0C67.784,155.908,67.784,156.872,67.191,157.463z"/>
	
		<ellipse transform="matrix(0.7069 0.7073 -0.7073 0.7069 125.6333 -7.9394)" fill="#E6E6E5" cx="72.396" cy="147.618" rx="0.565" ry="0.249"/>
	
		<ellipse transform="matrix(0.7071 0.7071 -0.7071 0.7071 126.3232 -6.1752)" fill="#E6E6E5" cx="70.616" cy="149.398" rx="0.567" ry="0.247"/>
	<path fill="#E6E6E5" d="M75.288,150.509c-0.097,0.098-0.354-0.002-0.578-0.227c-0.219-0.219-0.321-0.479-0.224-0.574
		c0.097-0.098,0.356,0.005,0.575,0.227C75.283,150.155,75.384,150.413,75.288,150.509z"/>
	<path fill="#E6E6E5" d="M73.509,152.288c-0.097,0.097-0.356-0.005-0.576-0.224c-0.224-0.222-0.32-0.479-0.224-0.578
		c0.094-0.094,0.351,0.005,0.575,0.227C73.503,151.935,73.605,152.191,73.509,152.288z"/>
</g>
<g>
	<path fill="#FFF1B5" d="M100.433,120.403c0,0,0.372,0.851,1.207,1.683c0.835,0.835,1.359,0.883,1.359,0.883l4.917-4.915
		l-2.565-2.565L100.433,120.403z"/>
	<path fill="#FFF1B5" d="M98.407,118.849c0,0-0.336,0.85,0.99,2.176c1.326,1.323,2.983,1.323,2.983,1.323l-0.059-1.364l-2.907-2.283
		L98.407,118.849z"/>
	<path fill="#27281F" d="M69.441,139.45l3.375,3.268c0,0-4.164,6.271-6.01,5.905c-1.845-0.369-6.221-3.586-3.953-5.429
		C65.119,141.347,69.441,139.45,69.441,139.45z"/>
	<path fill="#27281F" d="M58.552,130.476c-0.794-0.797-1.146-1.866-1.064-2.904c-0.025,0.002-0.051,0.002-0.079,0.005
		c0,0-1.087,0.239-2.568-0.025c-1.318-0.234-3.498-0.578-4.294-0.835c-0.799-0.252-2.321-0.982-3.268-0.036
		c-0.95,0.947,1.489,3.849,2.161,4.376c0.672,0.526,6.694,3.54,6.694,3.54s2.326,1.196,4.23-0.712
		c0.646-0.652,1.008-1.487,1.079-2.342C60.408,131.62,59.347,131.265,58.552,130.476z"/>
	<path fill="#FFF1B5" d="M81.19,101.158c0,0-0.807-0.325-1.693-1.212c-0.886-0.886-0.873-1.354-0.873-1.354l4.917-4.915l2.566,2.563
		L81.19,101.158z"/>
	<path fill="#485238" d="M96.6,91.341l-23.45,20.386l-12.438,13.65l-0.749,0.44l-0.183,0.57l-0.621,0.308l-0.173,0.562l-0.667,0.359
		l-1.095-0.438c0,0-1.512,1.158,0.886,3.678c2.403,2.521,3.324,1.187,3.324,1.187l2.057-3.159l12.391-13.614l18.179-15.231
		c0,0-0.753-0.053,2.917,3.617c3.67,3.67,4.012,3.288,4.012,3.288l-17.497,15.756l-10.708,12.69l-3.484,3.398l-1.166,0.55
		c0,0,0.237,1.426,1.629,2.817c1.395,1.396,3.116,1.337,3.116,1.337l0.595-1.599l0.581-0.558l0.094-0.677l0.697-0.776l12.414-14.233
		l22.933-20.719L96.6,91.341z"/>
	
		<rect x="123.155" y="72.995" transform="matrix(0.7072 0.7071 -0.7071 0.7072 90.3998 -66.8303)" fill="#E6D9A3" width="5.446" height="5.445"/>
	<path fill="#FFF1B5" d="M150.84,70.777c-7.781,7.784-17.583,10.599-26.573,1.608c-8.99-8.992-4.475-17.092,3.309-24.872
		c7.778-7.784,17.799-10.378,25.58-2.597C160.94,52.698,158.624,62.999,150.84,70.777z"/>
	<path fill="#FFFFFF" d="M137.149,55.951c-1.769,1.769-4.635,1.767-6.401,0c-1.771-1.77-1.771-4.635-0.002-6.401
		c1.769-1.77,4.635-1.77,6.404,0C138.918,51.316,138.918,54.182,137.149,55.951z"/>
	<path fill="#2B7871" d="M135.522,54.324c-0.871,0.868-2.281,0.868-3.151,0c-0.866-0.87-0.866-2.28,0-3.148
		c0.87-0.868,2.28-0.87,3.151-0.002C136.393,52.044,136.391,53.454,135.522,54.324z"/>
	<path fill="#FFFFFF" d="M141.499,69.525c-2.568,2.565-7.041,2.683-9.729,0c-2.683-2.688-2.565-7.16,0-9.726L141.499,69.525z"/>
	<path fill="#010101" d="M139.132,71.129c-2.459,0.978-5.523,0.588-7.537-1.431c-1.919-1.917-2.365-4.793-1.555-7.183
		C130.363,61.563,139.946,70.803,139.132,71.129z"/>
	<path fill="#2B7871" d="M150.178,37.706c-0.817-0.125-1.268-2.069-1.896-2.686c-1.252-1.229-2.347-1.517-4.139-1.921
		c-2.645-0.596-4.07-2.093-5.943-3.719c-0.736,1.463,0.672,2.155,0.784,3.273c-0.631,0.066-1.227-0.224-1.83-0.318
		c-1.481-0.239-2.81-0.026-4.421,0.631c-2.052,0.84-3.966,2.112-5.89,3.332c1.471-0.249,3.836-0.573,5.009,0.117
		c-0.917,1.074-2.794,1.767-3.91,2.726c-1.578,1.356-3.13,2.849-4.938,3.795c1.405-0.111,3.124-0.984,4.495-1.664
		c0.703-0.352,2.36-1.421,3.009-1.176c-1.013,1.707-3.123,3.481-4.604,4.882c1.54-0.84,3.854-1.431,5.373-1.726
		c-2.632,2.545,1.14,1.605,2.237,1.407c2.349-0.428,4.849-0.894,7.073-0.726c1.456,0.104,6.134,1.033,0.942,1.957
		c1.28,1.182,5.328-2.084,11.398,5.837c0.382-0.128,0.524,4.768,0.749,5.07c0.476,0.639-0.909,2.426-0.713,3.136
		c0.361,1.298,2.423-0.036,3.441,0.051c-0.295,1.512-1.196,4.113-2.169,5.467c-0.779,1.088-1.891,1.449-2.667,2.345
		c0.657,0.662,0.209,1.42,1.095,1.479c0.616,0.038,1.166-0.389,1.776-0.583c0.54-0.17,1.057-0.135,1.586-0.358
		c-1.285,1.263-2.515,2.64-3.856,3.825c1.497-0.781,4.281-0.916,5.294-2.736c0.204,0.93-0.412,2.167-0.998,3.108
		c2.25-2.095,2.051-4.849,3.075-7.173c0.282-0.639,0.066-0.604,0.837-1.379c0.799-0.81,1.512-1.556,2.176-2.479
		c1.657-2.299,2.026-2.093,2.105-4.479c1.209,1.352-0.008,1.002,0.552,2.471c1.415-1.71,0.769-4.449,0.219-5.89
		c-0.443-1.158-1.611-1.939-2.446-2.774c-0.972-0.975-1.939-1.955-2.919-2.922c-0.565-0.56-1.945-1.764-0.379-1.143
		c0.901,0.358,1.301,0.604,2.199,1.412c-0.537-0.934-0.308-2.166-0.939-3.033c-0.723-1.001-2.153-1.377-3.293-1.863
		c-1.039-0.44-1.568,0.198-2.464-0.407c-1.115-0.751-1.356-1.889-1.924-3.045c-0.443-0.903-1.967-2.347-2.617-3.079
		c-0.583-0.667-0.998-2.159-1.688-2.475c-0.051,0.792,0.873,2.309,1,3.057"/>
	<path fill="#603A17" d="M141.85,51.222c-1.25-1.122-2.316-2.518-3.52-3.706c-0.96-0.946-2.237-1.496-3.133-2.415
		c2.372-1.955,6.949,3.589,6.653,5.936"/>
	<path fill="#603A17" d="M152.833,62.205c-1.247-1.12-2.313-2.518-3.52-3.706c-0.957-0.947-2.235-1.494-3.131-2.416
		c2.373-1.954,6.949,3.589,6.651,5.938"/>
	<circle fill="#FFFFFF" cx="134.246" cy="51.299" r="1.078"/>
	<circle fill="#FFFFFF" cx="144.654" cy="63.456" r="4.526"/>
	<circle fill="#2B7871" cx="144.653" cy="63.456" r="2.227"/>
	<path fill="#FFFFFF" d="M145.714,62.768c-0.422,0.423-1.104,0.423-1.527,0c-0.417-0.42-0.42-1.103,0.003-1.522
		c0.42-0.42,1.102-0.422,1.524,0C146.134,61.665,146.134,62.348,145.714,62.768z"/>
	<path fill="#E6D9A3" d="M129.004,68.402c0.55,2.202,3.818,4.065,6.015,4.432C132.639,73.2,128.362,72.343,129.004,68.402z"/>
	<path fill="#97292E" d="M131.595,69.698c0.995,0.998,2.248,1.594,3.553,1.83c0.608-1.011,0.479-2.334-0.39-3.205
		c-0.336-0.336-0.738-0.56-1.161-0.674c-0.127-0.26-0.295-0.502-0.509-0.718c-0.876-0.876-2.22-0.998-3.233-0.374
		C130.137,67.716,130.707,68.81,131.595,69.698z"/>
	<path fill="#BC5528" d="M132.748,92.082c0.519-0.83,0.799-3.92-0.733-7.079c-1.405-2.898-4.617-5.923-4.617-5.923
		c-0.708,0.708-2.273,0.28-3.502-0.946c-1.227-1.232-1.654-2.795-0.947-3.503c0,0-3.131-3.388-6.544-5.072
		c-3.414-1.688-7.109-1.67-7.847-1.112c-1.487,1.112-26.718,26.718-26.718,26.718s-0.499,0.558,0.651,1.708
		c1.153,1.153,2.034,0.954,2.034,0.954s22.109-22.11,23.392-23.394l2.565,2.565c-1.283,1.285-16.442,16.448-16.442,16.448
		s0.155,1.262,6.322,7.43c6.17,6.167,7.845,6.625,7.845,6.625s15.106-15.106,16.389-16.389l2.566,2.565
		c-1.283,1.282-23.852,23.852-23.852,23.852s-0.395,0.166,0.672,1.232s1.466,0.894,1.466,0.894S131.822,93.565,132.748,92.082z"/>
	<path fill="#FFF1B5" d="M82.041,102.481c0,0-0.85,0.334-2.174-0.99c-1.324-1.325-1.329-2.982-1.329-2.982l1.364,0.059l2.286,2.906
		L82.041,102.481z"/>
</g>
<path fill="#DDDB59" d="M0.906,0L0,201.191h150.596C150.596,201.191-0.071,181.644,0.906,0z"/>
</svg>
